<?xml version="1.0" encoding="utf-8"?>
<!-- Generator: Adobe Illustrator 16.0.0, SVG Export Plug-In . SVG Version: 6.00 Build 0)  -->
<!DOCTYPE svg PUBLIC "-//W3C//DTD SVG 1.1//EN" "http://www.w3.org/Graphics/SVG/1.1/DTD/svg11.dtd">
<svg version="1.1" id="图层_1" xmlns="http://www.w3.org/2000/svg" xmlns:xlink="http://www.w3.org/1999/xlink" x="0px" y="0px"
	 width="100px" height="88px" viewBox="0 0 100 88" enable-background="new 0 0 100 88" xml:space="preserve">
<g display="none">
	<path display="inline" d="M80.578,48.977l-15.74-37.458c-1.248-2.499-4.549-4.543-7.336-4.543H16.816
		c-2.789,0-6.09,2.044-7.338,4.543L-6.26,48.977c-1.248,2.5-1.893,6.803-1.434,9.561l3.4,18.427
		c0.459,2.759,3.115,5.013,5.902,5.013h71.098c2.787,0,5.442-2.254,5.901-5.013l3.401-18.427
		C82.468,55.777,81.824,51.477,80.578,48.977z M73.764,62.104l-1.296,7.516c-0.389,2.885-2.983,5.242-5.772,5.242H7.621
		c-2.787,0-5.385-2.357-5.773-5.242l-1.295-7.516c-0.387-2.883,1.575-5.244,4.364-5.244h64.479
		C72.188,56.859,74.15,59.221,73.764,62.104z"/>
</g>
<rect x="9.167" y="6.167" fill="#FFFFFF" stroke="#000000" stroke-miterlimit="10" width="82.333" height="61.667"/>
<path fill="#333333" d="M90,0H10C4.5,0,0,4.5,0,10v55c0,5.5,4.412,10.883,9.807,11.962l21.859,4.371c0,0-18.814,6.667-6.666,6.667
	h50c12.15,0-6.666-6.667-6.666-6.667l21.861-4.371C95.587,75.883,100,70.5,100,65V10C100,4.5,95.5,0,90,0z M90,64.5H10V9h80V64.5z"
	/>
<g display="none">
	<path display="inline" d="M63.218,30.175c-1.379,0-2.729,0.119-4.043,0.34c-3.28-10.725-13.443-18.541-25.478-18.541
		c-14.689,0-26.596,11.641-26.596,26.002c0,1.281,0.1,2.541,0.283,3.773c-0.705-0.08-1.418-0.135-2.145-0.135
		c-9.988,0-18.086,7.915-18.086,17.68s8.098,17.681,18.086,17.681h57.979c13.222,0,23.937-10.478,23.937-23.399
		C87.154,40.651,76.439,30.175,63.218,30.175z"/>
</g>
</svg>
