<?xml version="1.0" encoding="utf-8"?>
<!-- Generator: Adobe Illustrator 16.0.0, SVG Export Plug-In . SVG Version: 6.00 Build 0)  -->
<!DOCTYPE svg PUBLIC "-//W3C//DTD SVG 1.1//EN" "http://www.w3.org/Graphics/SVG/1.1/DTD/svg11.dtd">
<svg version="1.1" id="图层_1" xmlns="http://www.w3.org/2000/svg" xmlns:xlink="http://www.w3.org/1999/xlink" x="0px" y="0px"
	 width="75.321px" height="75.158px" viewBox="0 0 75.321 75.158" enable-background="new 0 0 75.321 75.158" xml:space="preserve">
<g>
	<path fill="#FFFFFF" stroke="#000000" stroke-width="5" stroke-miterlimit="10" d="M37.82,2.79c-19.329,0-35,15.671-35,35
		c0,19.33,15.671,35,35,35c19.329,0,35-15.67,35-35C72.821,18.46,57.149,2.79,37.82,2.79z"/>
</g>
<path d="M24.262,47.738l-7.123,6.664l4.596,4.597l6.664-7.124l4.596,4.825V43.142H19.437L24.262,47.738z M58.502,22.23l-4.596-4.597
	l-6.664,7.124l-4.596-4.825V33.49h13.558l-4.826-4.596L58.502,22.23z"/>
<path d="M55.947,42.022l-4.473,5.525l-6.73-6.962l-4.597,4.597l6.969,6.737l-5.646,4.579h14.478V42.022z M35.551,31.394
	l-6.964-6.735l5.585-4.525H19.696v14.477l4.525-5.585l6.734,6.964L35.551,31.394z"/>
</svg>
