<?xml version="1.0" encoding="utf-8"?>
<!-- Generator: Adobe Illustrator 16.0.0, SVG Export Plug-In . SVG Version: 6.00 Build 0)  -->
<!DOCTYPE svg PUBLIC "-//W3C//DTD SVG 1.1//EN" "http://www.w3.org/Graphics/SVG/1.1/DTD/svg11.dtd">
<svg version="1.1" id="图层_1" xmlns="http://www.w3.org/2000/svg" xmlns:xlink="http://www.w3.org/1999/xlink" x="0px" y="0px"
	 width="90px" height="75px" viewBox="0 0 90 75" enable-background="new 0 0 90 75" xml:space="preserve">
<g>
	<path fill="#333333" d="M88.419,42.003L72.68,4.543C71.432,2.044,68.13,0,65.343,0H24.658c-2.789,0-6.09,2.044-7.338,4.543
		L1.582,42.003c-1.248,2.5-1.893,6.802-1.434,9.56l3.4,18.426C4.007,72.745,6.664,75,9.451,75h71.098
		c2.787,0,5.443-2.255,5.902-5.012l3.402-18.428C90.311,48.805,89.666,44.503,88.419,42.003z M81.605,55.13l-1.295,7.515
		c-0.39,2.885-2.984,5.242-5.773,5.242H15.462c-2.787,0-5.385-2.357-5.773-5.242L8.394,55.13c-0.387-2.884,1.576-5.243,4.365-5.243
		h64.48C80.029,49.887,81.992,52.246,81.605,55.13z"/>
</g>
<path display="none" d="M85-6.5H5C-0.5-6.5-5-2-5,3.5v55c0,5.5,4.412,10.883,9.807,11.962l21.859,4.371
	c0,0-18.814,6.667-6.666,6.667h50c12.15,0-6.666-6.667-6.666-6.667l21.861-4.371C90.587,69.383,95,64,95,58.5v-55
	C95-2,90.5-6.5,85-6.5z M85,58H5V2.5h80V58z"/>
<g display="none">
	<path display="inline" d="M71.061,23.201c-1.379,0-2.729,0.119-4.043,0.34C63.736,12.816,53.574,5,41.539,5
		c-14.69,0-26.596,11.641-26.596,26.002c0,1.281,0.1,2.541,0.283,3.773c-0.705-0.08-1.418-0.135-2.145-0.135
		c-9.988,0-18.086,7.917-18.086,17.68S3.093,70,13.082,70h57.979c13.221,0,23.936-10.477,23.936-23.4
		C94.996,33.678,84.281,23.201,71.061,23.201z"/>
</g>
</svg>
