<?xml version="1.0" encoding="utf-8"?>
<!-- Generator: Adobe Illustrator 16.0.4, SVG Export Plug-In . SVG Version: 6.00 Build 0)  -->
<!DOCTYPE svg PUBLIC "-//W3C//DTD SVG 1.1//EN" "http://www.w3.org/Graphics/SVG/1.1/DTD/svg11.dtd">
<svg version="1.1" xmlns="http://www.w3.org/2000/svg" xmlns:xlink="http://www.w3.org/1999/xlink" x="0px" y="0px" width="100px"
	 height="65.75px" viewBox="0 2.25 100 65.75" enable-background="new 0 2.25 100 65.75" xml:space="preserve">
<g id="图层_1">
	<g display="none">
		<path display="inline" d="M86.567,48.977l-15.74-37.458c-1.248-2.499-4.549-4.543-7.336-4.543H22.806
			c-2.789,0-6.09,2.044-7.338,4.543L-0.27,48.977c-1.248,2.5-1.893,6.803-1.434,9.562l3.4,18.427
			c0.459,2.76,3.115,5.014,5.902,5.014h71.098c2.787,0,5.442-2.254,5.901-5.014l3.4-18.427
			C88.457,55.777,87.813,51.477,86.567,48.977z M79.753,62.104l-1.296,7.517c-0.389,2.885-2.983,5.241-5.772,5.241H13.611
			c-2.787,0-5.385-2.356-5.773-5.241l-1.295-7.517c-0.387-2.883,1.575-5.244,4.364-5.244h64.479
			C78.177,56.859,80.14,59.221,79.753,62.104z"/>
	</g>
	<g display="none">
		<path display="inline" d="M69.211,30.175c-1.379,0-2.729,0.119-4.043,0.34C61.888,19.79,51.726,11.974,39.69,11.974
			c-14.689,0-26.596,11.641-26.596,26.002c0,1.281,0.1,2.541,0.283,3.773c-0.705-0.08-1.418-0.135-2.145-0.135
			c-9.988,0-18.086,7.916-18.086,17.68s8.098,17.681,18.086,17.681h57.979c13.222,0,23.937-10.478,23.937-23.398
			C93.147,40.651,82.433,30.175,69.211,30.175z"/>
	</g>
	<g>
		<path fill="none" stroke="#000000" stroke-width="4" stroke-miterlimit="10" d="M74.631,21.749c-1.303,0-2.578,0.113-3.82,0.321
			C67.709,11.936,58.105,4.549,46.733,4.549c-13.881,0-25.133,11-25.133,24.572c0,1.21,0.094,2.401,0.268,3.566
			c-0.666-0.076-1.34-0.127-2.026-0.127c-9.439,0-17.091,7.48-17.091,16.708c0,9.227,7.652,16.707,17.091,16.707h54.79
			c12.492,0,22.619-9.9,22.619-22.114C97.25,31.649,87.123,21.749,74.631,21.749z"/>
	</g>
</g>
<g id="图层_2">
	<g>
		<path d="M28.11,49.717V39.695h1.326v10.021H28.11z"/>
		<path d="M31.617,49.717v-7.26h1.107v1.032c0.533-0.798,1.303-1.196,2.311-1.196c0.438,0,0.84,0.078,1.207,0.236
			c0.367,0.156,0.642,0.363,0.824,0.618s0.31,0.559,0.383,0.909c0.045,0.228,0.068,0.627,0.068,1.196v4.464h-1.23v-4.416
			c0-0.501-0.048-0.876-0.144-1.125c-0.096-0.248-0.266-0.446-0.509-0.594c-0.244-0.148-0.53-0.223-0.858-0.223
			c-0.524,0-0.977,0.166-1.357,0.499s-0.571,0.964-0.571,1.894v3.965H31.617z"/>
		<path d="M42.089,48.616l0.178,1.087c-0.346,0.073-0.656,0.109-0.93,0.109c-0.447,0-0.793-0.07-1.039-0.212
			s-0.419-0.327-0.52-0.558c-0.1-0.229-0.15-0.714-0.15-1.452v-4.177h-0.902v-0.957h0.902v-1.798l1.224-0.738v2.536h1.237v0.957
			h-1.237v4.245c0,0.351,0.021,0.576,0.065,0.677s0.114,0.18,0.212,0.239s0.238,0.089,0.42,0.089
			C41.686,48.664,41.866,48.648,42.089,48.616z"/>
		<path d="M48.262,47.379l1.271,0.157c-0.201,0.743-0.572,1.319-1.114,1.729s-1.235,0.615-2.078,0.615
			c-1.062,0-1.904-0.327-2.526-0.98c-0.622-0.654-0.933-1.571-0.933-2.752c0-1.222,0.314-2.169,0.943-2.844s1.445-1.012,2.447-1.012
			c0.971,0,1.764,0.33,2.379,0.991s0.923,1.591,0.923,2.789c0,0.073-0.002,0.183-0.007,0.328h-5.414
			c0.045,0.798,0.271,1.408,0.677,1.832s0.912,0.636,1.518,0.636c0.451,0,0.836-0.118,1.155-0.355S48.075,47.898,48.262,47.379z
			 M44.222,45.39h4.054c-0.055-0.61-0.209-1.068-0.465-1.374c-0.392-0.474-0.9-0.711-1.524-0.711c-0.565,0-1.04,0.189-1.425,0.567
			S44.263,44.756,44.222,45.39z"/>
		<path d="M51.064,49.717v-7.26h1.108v1.101c0.282-0.515,0.543-0.854,0.781-1.019c0.24-0.164,0.504-0.246,0.791-0.246
			c0.414,0,0.836,0.132,1.264,0.396l-0.424,1.142c-0.301-0.178-0.602-0.267-0.902-0.267c-0.27,0-0.51,0.081-0.725,0.242
			c-0.214,0.162-0.366,0.387-0.457,0.674c-0.137,0.438-0.205,0.916-0.205,1.436v3.801H51.064z"/>
		<path d="M55.741,49.717v-7.26h1.107v1.032c0.533-0.798,1.303-1.196,2.311-1.196c0.438,0,0.84,0.078,1.205,0.236
			c0.367,0.156,0.643,0.363,0.824,0.618c0.184,0.255,0.311,0.559,0.383,0.909c0.047,0.228,0.068,0.627,0.068,1.196v4.464h-1.23
			v-4.416c0-0.501-0.047-0.876-0.143-1.125c-0.096-0.248-0.266-0.446-0.51-0.594c-0.244-0.148-0.529-0.223-0.857-0.223
			c-0.525,0-0.977,0.166-1.357,0.499s-0.57,0.964-0.57,1.894v3.965H55.741z"/>
		<path d="M68.497,47.379l1.271,0.157c-0.201,0.743-0.572,1.319-1.115,1.729c-0.541,0.41-1.234,0.615-2.078,0.615
			c-1.061,0-1.902-0.327-2.525-0.98c-0.621-0.654-0.934-1.571-0.934-2.752c0-1.222,0.314-2.169,0.943-2.844s1.445-1.012,2.447-1.012
			c0.971,0,1.764,0.33,2.379,0.991s0.924,1.591,0.924,2.789c0,0.073-0.002,0.183-0.008,0.328h-5.414
			c0.047,0.798,0.271,1.408,0.678,1.832c0.404,0.424,0.91,0.636,1.518,0.636c0.451,0,0.836-0.118,1.154-0.355
			C68.058,48.276,68.31,47.898,68.497,47.379z M64.456,45.39h4.055c-0.055-0.61-0.211-1.068-0.465-1.374
			c-0.393-0.474-0.9-0.711-1.525-0.711c-0.564,0-1.039,0.189-1.424,0.567C64.71,44.25,64.497,44.756,64.456,45.39z"/>
		<path d="M73.999,48.616l0.178,1.087c-0.346,0.073-0.656,0.109-0.93,0.109c-0.445,0-0.793-0.07-1.039-0.212
			s-0.418-0.327-0.52-0.558c-0.1-0.229-0.15-0.714-0.15-1.452v-4.177h-0.902v-0.957h0.902v-1.798l1.225-0.738v2.536h1.236v0.957
			h-1.236v4.245c0,0.351,0.021,0.576,0.064,0.677s0.113,0.18,0.211,0.239c0.1,0.06,0.238,0.089,0.422,0.089
			C73.597,48.664,73.776,48.648,73.999,48.616z"/>
	</g>
</g>
</svg>
