<?xml version="1.0" encoding="utf-8"?>
<!-- Generator: Adobe Illustrator 16.0.0, SVG Export Plug-In . SVG Version: 6.00 Build 0)  -->
<!DOCTYPE svg PUBLIC "-//W3C//DTD SVG 1.1//EN" "http://www.w3.org/Graphics/SVG/1.1/DTD/svg11.dtd">
<svg version="1.1" id="图层_1" xmlns="http://www.w3.org/2000/svg" xmlns:xlink="http://www.w3.org/1999/xlink" x="0px" y="0px"
	 width="154px" height="28px" viewBox="0 0 154 28" enable-background="new 0 0 154 28" xml:space="preserve">
<g>
	<rect x="26" fill="#C1B0AE" width="24" height="8"/>
	<rect x="52" fill="#C1B0AE" width="24" height="8"/>
</g>
<g>
	<rect x="52" fill="#C1B0AE" width="24" height="8"/>
	<rect x="78" fill="#C1B0AE" width="24" height="8"/>
</g>
<g>
	<rect x="78" fill="#C1B0AE" width="24" height="8"/>
	<rect x="104" fill="#C1B0AE" width="24" height="8"/>
</g>
<g>
	<rect x="104" fill="#C1B0AE" width="24" height="8"/>
	<rect x="130" fill="#C1B0AE" width="24" height="8"/>
</g>
<g>
	<rect x="13" y="10" fill="#C1B0AE" width="24" height="8"/>
	<rect x="39" y="10" fill="#C1B0AE" width="24" height="8"/>
</g>
<g>
	<rect x="39" y="10" fill="#C1B0AE" width="24" height="8"/>
	<rect x="65" y="10" fill="#C1B0AE" width="24" height="8"/>
</g>
<g>
	<rect x="65" y="10" fill="#C1B0AE" width="24" height="8"/>
	<rect x="91" y="10" fill="#C1B0AE" width="24" height="8"/>
</g>
<g>
	<rect x="91" y="10" fill="#C1B0AE" width="24" height="8"/>
	<rect x="117" y="10" fill="#C1B0AE" width="24" height="8"/>
</g>
<g>
	<rect fill="#C1B0AE" width="24" height="8"/>
	<rect x="26" fill="#C1B0AE" width="24" height="8"/>
</g>
<g>
	<rect x="26" y="20" fill="#C1B0AE" width="24" height="8"/>
	<rect x="52" y="20" fill="#C1B0AE" width="24" height="8"/>
</g>
<g>
	<rect x="52" y="20" fill="#C1B0AE" width="24" height="8"/>
	<rect x="78" y="20" fill="#C1B0AE" width="24" height="8"/>
</g>
<g>
	<rect x="78" y="20" fill="#C1B0AE" width="24" height="8"/>
	<rect x="104" y="20" fill="#C1B0AE" width="24" height="8"/>
</g>
<g>
	<rect x="104" y="20" fill="#C1B0AE" width="24" height="8"/>
	<rect x="130" y="20" fill="#C1B0AE" width="24" height="8"/>
	<rect x="143" y="10" fill="#C1B0AE" width="11" height="8"/>
	<rect y="10" fill="#C1B0AE" width="11" height="8"/>
</g>
<g>
	<rect y="20" fill="#C1B0AE" width="24" height="8"/>
	<rect x="26" y="20" fill="#C1B0AE" width="24" height="8"/>
</g>
</svg>
