<?xml version="1.0" encoding="utf-8"?>
<!-- Generator: Adobe Illustrator 16.0.0, SVG Export Plug-In . SVG Version: 6.00 Build 0)  -->
<!DOCTYPE svg PUBLIC "-//W3C//DTD SVG 1.1//EN" "http://www.w3.org/Graphics/SVG/1.1/DTD/svg11.dtd">
<svg version="1.1" id="图层_1" xmlns="http://www.w3.org/2000/svg" xmlns:xlink="http://www.w3.org/1999/xlink" x="0px" y="0px"
	 width="28px" height="154px" viewBox="63 -63 28 154" enable-background="new 63 -63 28 154" xml:space="preserve">
<g>
	<rect x="83" y="-37" fill="#C1B0AE" width="8" height="24"/>
	<rect x="83" y="-11" fill="#C1B0AE" width="8" height="24"/>
</g>
<g>
	<rect x="83" y="-11" fill="#C1B0AE" width="8" height="24"/>
	<rect x="83" y="15" fill="#C1B0AE" width="8" height="24"/>
</g>
<g>
	<rect x="83" y="15" fill="#C1B0AE" width="8" height="24"/>
	<rect x="83" y="41" fill="#C1B0AE" width="8" height="24"/>
</g>
<g>
	<rect x="83" y="41" fill="#C1B0AE" width="8" height="24"/>
	<rect x="83" y="67" fill="#C1B0AE" width="8" height="24"/>
</g>
<g>
	<rect x="73" y="-50" fill="#C1B0AE" width="8" height="24"/>
	<rect x="73" y="-24" fill="#C1B0AE" width="8" height="24"/>
</g>
<g>
	<rect x="73" y="-24" fill="#C1B0AE" width="8" height="24"/>
	<rect x="73" y="2" fill="#C1B0AE" width="8" height="24"/>
</g>
<g>
	<rect x="73" y="2" fill="#C1B0AE" width="8" height="24"/>
	<rect x="73" y="28" fill="#C1B0AE" width="8" height="24"/>
</g>
<g>
	<rect x="73" y="28" fill="#C1B0AE" width="8" height="24"/>
	<rect x="73" y="54" fill="#C1B0AE" width="8" height="24"/>
</g>
<g>
	<rect x="83" y="-63" fill="#C1B0AE" width="8" height="24"/>
	<rect x="83" y="-37" fill="#C1B0AE" width="8" height="24"/>
</g>
<g>
	<rect x="63" y="-37" fill="#C1B0AE" width="8" height="24"/>
	<rect x="63" y="-11" fill="#C1B0AE" width="8" height="24"/>
</g>
<g>
	<rect x="63" y="-11" fill="#C1B0AE" width="8" height="24"/>
	<rect x="63" y="15" fill="#C1B0AE" width="8" height="24"/>
</g>
<g>
	<rect x="63" y="15" fill="#C1B0AE" width="8" height="24"/>
	<rect x="63" y="41" fill="#C1B0AE" width="8" height="24"/>
</g>
<g>
	<rect x="63" y="41" fill="#C1B0AE" width="8" height="24"/>
	<rect x="63" y="67" fill="#C1B0AE" width="8" height="24"/>
	<rect x="73" y="80" fill="#C1B0AE" width="8" height="11"/>
	<rect x="73" y="-63" fill="#C1B0AE" width="8" height="11"/>
</g>
<g>
	<rect x="63" y="-63" fill="#C1B0AE" width="8" height="24"/>
	<rect x="63" y="-37" fill="#C1B0AE" width="8" height="24"/>
</g>
</svg>
